<svg width="243" height="87" viewBox="0 0 243 87" fill="none" xmlns="http://www.w3.org/2000/svg">
<path d="M127.819 16.2775C127.495 16.3098 127.172 16.342 126.891 16.342C125.943 16.256 125.727 14.7938 126.59 14.3208C128.53 13.2026 131.937 12.5145 134.696 12.5145C138.103 12.5145 139.483 13.0306 139.483 16.8581V28.5556C139.483 29.2867 139.914 30.0178 140.604 30.4478C140.819 30.5768 141.078 30.7488 141.337 30.9209C142.07 31.4369 141.639 32.77 140.776 32.77H128.271C127.409 32.77 127.021 31.4369 127.754 30.9209C127.969 30.7488 128.271 30.5768 128.616 30.4049C129.306 30.0607 129.781 29.3296 129.781 28.5556V17.0731C129.781 16.385 129.349 16.213 128.746 16.213C128.465 16.213 128.142 16.2452 127.819 16.2775Z" fill="white"/>
<path d="M133.92 9.20316C130.255 9.20316 128.099 7.48295 128.099 4.55857C128.099 1.67721 130.255 0 133.92 0C137.585 0 139.698 1.67721 139.698 4.55857C139.698 7.48295 137.585 9.20316 133.92 9.20316Z" fill="white"/>
<path d="M65.2109 17.2022C65.5558 26.5774 71.4201 33.3292 82.4156 33.3292C91.514 33.3292 97.0765 29.3726 97.982 21.7607C98.1545 20.3415 97.8957 19.0084 96.6021 18.9223C95.136 18.8364 94.7911 20.2555 94.6186 21.4597C93.8424 26.4483 90.436 29.4588 86.0808 29.4588C79.311 29.4588 76.767 23.9539 76.0339 17.9332C75.0853 9.97722 75.9478 4.25752 80.5185 3.69844C83.6663 3.31139 86.5984 4.47255 86.2103 9.76222C85.9083 13.8477 88.8837 15.74 92.592 15.4389C97.0765 15.0949 97.7664 10.7943 96.7746 8.21402C95.136 3.78446 90.0048 1.0321 82.157 1.0321C71.1615 1.0321 64.9091 7.3969 65.2109 17.2022Z" fill="white"/>
<path fill-rule="evenodd" clip-rule="evenodd" d="M98.4859 28.1255C98.8309 31.3508 101.806 33.3722 105.73 33.3722C108.835 33.3722 111.853 32.0389 113.19 29.5017C113.664 32.0389 116.294 33.2862 119.485 33.3292C126.039 33.4152 126.686 30.1037 125.652 29.8457C125.376 29.7824 125.122 29.9367 124.853 30.1C124.573 30.2695 124.278 30.4486 123.927 30.4049C123.194 30.3188 122.935 29.5447 122.935 28.2115C122.935 26.4913 122.935 23.6099 122.978 20.6426C122.978 14.4498 117.76 12.0845 111.12 12.0845C104.997 12.0415 100.944 13.8477 100.771 16.471C100.642 18.1053 102.496 18.9223 104.307 18.9223C105.816 18.9223 107.326 18.3203 107.627 17.2021L107.673 17.0419C108.123 15.4409 108.474 14.1931 110.603 14.2348C112.5 14.2778 113.147 15.826 113.147 19.0944V20.5565C112.371 20.2985 111.034 20.1264 109.482 20.1264C104.738 20.1264 97.8822 21.8036 98.4859 28.1255ZM108.015 25.6313C108.274 22.9648 109.827 22.3628 111.163 22.3628C112.026 22.3628 112.845 22.6208 113.147 22.7498L113.104 25.1151C113.06 27.3515 112.672 29.2437 110.689 29.2867C108.792 29.3726 107.843 27.7384 108.015 25.6313Z" fill="white"/>
<path d="M142.916 4.42954C143.196 4.42954 143.52 4.39728 143.843 4.36502C144.166 4.33277 144.49 4.30051 144.77 4.30051C145.374 4.30051 145.805 4.47255 145.805 5.16062V28.5556C145.805 29.3297 145.331 30.0608 144.641 30.4049C144.296 30.5768 143.994 30.7489 143.778 30.9209C143.045 31.437 143.433 32.77 144.296 32.77H156.8C157.663 32.77 158.094 31.437 157.361 30.9209L157.361 30.9206C157.102 30.7487 156.844 30.5768 156.628 30.4479C155.938 30.0178 155.507 29.2867 155.507 28.5556V4.94559C155.507 1.11811 154.084 0.602051 150.678 0.602051C147.875 0.602051 144.511 1.29014 142.614 2.40828C141.752 2.88134 141.967 4.34352 142.916 4.42954Z" fill="white"/>
<path d="M159.572 4.36502C159.248 4.39728 158.925 4.42954 158.645 4.42954C157.696 4.34352 157.48 2.88134 158.343 2.40828C160.24 1.29014 163.603 0.602051 166.406 0.602051C169.813 0.602051 171.236 1.11811 171.236 4.94559V28.5556C171.236 29.2867 171.667 30.0178 172.357 30.4479C172.572 30.5768 172.831 30.7487 173.089 30.9206L173.09 30.9209C173.823 31.437 173.392 32.77 172.529 32.77H160.024C159.162 32.77 158.774 31.437 159.507 30.9209C159.723 30.7489 160.024 30.5768 160.369 30.4049C161.059 30.0608 161.534 29.3297 161.534 28.5556V5.16062C161.534 4.47255 161.102 4.30051 160.499 4.30051C160.218 4.30051 159.895 4.33277 159.572 4.36502Z" fill="white"/>
<path d="M174.751 16.342C175.031 16.342 175.355 16.3098 175.678 16.2775C176.002 16.2452 176.325 16.213 176.606 16.213C177.209 16.213 177.641 16.385 177.641 17.0731V28.5556C177.641 29.3296 177.165 30.0607 176.476 30.4049C176.13 30.5768 175.828 30.7488 175.614 30.9209C174.88 31.4369 175.269 32.77 176.13 32.77H188.636C189.498 32.77 189.929 31.4369 189.196 30.9209C188.938 30.7488 188.678 30.5768 188.463 30.4478C187.773 30.0178 187.342 29.2867 187.342 28.5556V16.8581C187.342 13.0306 185.963 12.5145 182.555 12.5145C179.795 12.5145 176.39 13.2026 174.449 14.3208C173.587 14.7938 173.803 16.256 174.751 16.342Z" fill="white"/>
<path d="M175.958 4.55857C175.958 7.48295 178.115 9.20316 181.78 9.20316C185.445 9.20316 187.557 7.48295 187.557 4.55857C187.557 1.67721 185.445 0 181.78 0C178.115 0 175.958 1.67721 175.958 4.55857Z" fill="white"/>
<path fill-rule="evenodd" clip-rule="evenodd" d="M202.072 33.3722C194.916 33.3722 190.215 29.6307 190.215 22.7068C190.215 15.783 194.916 12.0415 202.072 12.0415C209.275 12.0415 213.973 15.4389 213.973 22.7068C213.973 29.9748 209.275 33.3722 202.072 33.3722ZM204.359 22.3199C203.28 16.041 202.676 14.1918 200.693 14.5358C198.753 14.8799 198.753 16.8151 199.83 23.0939C200.865 29.3727 201.513 31.2649 203.453 30.9209C205.394 30.5768 205.394 28.5986 204.359 22.3199Z" fill="white"/>
<path fill-rule="evenodd" clip-rule="evenodd" d="M64.9521 46.5748C65.1677 46.7039 65.4697 46.8759 65.8146 47.0478C66.5045 47.4349 66.9787 48.166 66.9787 48.9401V71.561C66.9787 72.335 66.5045 73.0663 65.8146 73.4102C65.4697 73.5823 65.1677 73.7542 64.9521 73.9263C64.219 74.4423 64.6071 75.7755 65.4697 75.7755H79.311C91.2984 75.7755 98.7582 70.6578 98.7582 60.2506C98.7582 49.8432 91.2122 44.6395 79.311 44.6825L65.4697 44.7257C64.6071 44.7257 64.219 46.0587 64.9521 46.5748ZM77.5432 71.9051V48.5961C77.5432 47.8221 78.0606 47.2629 78.8368 47.2629C85.3048 47.3058 88.1938 51.4775 88.1938 60.2936C88.1938 69.1097 85.2184 73.1952 78.8368 73.1952C78.0606 73.1952 77.5432 72.6791 77.5432 71.9051Z" fill="white"/>
<path d="M100.931 59.2829C100.608 59.3152 100.284 59.3475 100.004 59.3475C99.0552 59.2615 98.8396 57.7992 99.7021 57.3261C101.642 56.2081 105.049 55.52 107.809 55.52C111.215 55.52 112.595 56.0361 112.595 59.8635V71.561C112.595 72.2921 113.026 73.0232 113.716 73.4532C113.932 73.5822 114.19 73.7542 114.449 73.9261L114.449 73.9263C115.182 74.4423 114.751 75.7756 113.888 75.7756H101.384C100.521 75.7756 100.133 74.4423 100.866 73.9263C101.082 73.7542 101.384 73.5823 101.729 73.4103C102.419 73.0663 102.893 72.3351 102.893 71.561V60.0786C102.893 59.3905 102.462 59.2184 101.858 59.2184C101.578 59.2184 101.254 59.2507 100.931 59.2829Z" fill="white"/>
<path d="M107.032 52.2086C103.367 52.2086 101.211 50.4884 101.211 47.5641C101.211 44.6826 103.367 43.0054 107.032 43.0054C110.698 43.0054 112.81 44.6826 112.81 47.5641C112.81 50.4884 110.698 52.2086 107.032 52.2086Z" fill="white"/>
<path fill-rule="evenodd" clip-rule="evenodd" d="M121.385 72.2061C117.418 73.4103 115.521 75.6465 115.564 78.5278C115.65 81.7533 118.108 83.8176 121.817 83.9036C125.353 83.9562 128.712 83.1067 131.349 82.4397C133.021 82.0168 134.403 81.6674 135.356 81.6674C136.046 81.6674 136.52 81.8393 136.693 82.3555C137.383 84.5057 132.64 85.0218 130.225 85.1077C128.974 85.1507 129.276 87 131.26 87C139.539 87 142.255 82.3555 141.091 78.3989C140.272 75.4746 137.685 74.6574 134.753 74.6574C132.628 74.6574 130.309 75.085 128.299 75.456C126.76 75.74 125.4 75.9906 124.447 75.9906C123.714 75.9906 123.196 75.8615 123.024 75.4746C122.506 74.3564 124.145 73.4103 125.783 73.0663C126.473 73.1093 127.206 73.1522 127.983 73.1522C135.787 73.1522 140.919 70.2709 140.919 64.1211C140.919 60.0356 138.72 57.4123 134.968 56.079C135.195 56.0841 135.428 56.092 135.665 56.1001H135.666C137.46 56.1613 139.462 56.2293 140.186 55.0899C141.436 53.1117 139.884 49.8433 138.116 49.8433C137.685 49.8433 137.253 50.0153 136.865 50.4884C134.925 52.6816 132.553 54.5309 127.983 55.0469C120.178 55.0469 115.047 58.2293 115.047 64.1211C115.047 68.1206 117.418 70.8299 121.385 72.2061ZM126.473 57.1542C128.586 56.8962 129.276 58.4443 130.44 63.7771C131.605 69.1097 131.605 70.7869 129.492 71.0879C127.336 71.3459 126.646 69.7549 125.482 64.4221C124.361 59.0895 124.361 57.4552 126.473 57.1542Z" fill="white"/>
<path d="M143.505 59.2829C143.182 59.3152 142.858 59.3475 142.578 59.3475C141.629 59.2615 141.414 57.7992 142.276 57.3261C144.217 56.2081 147.623 55.52 150.383 55.52C153.789 55.52 155.169 56.0361 155.169 59.8635V71.561C155.169 72.2921 155.6 73.0232 156.29 73.4532C156.506 73.5822 156.764 73.7542 157.023 73.9261L157.023 73.9263C157.756 74.4423 157.325 75.7756 156.463 75.7756H143.958C143.095 75.7756 142.707 74.4423 143.44 73.9263C143.656 73.7542 143.958 73.5823 144.303 73.4103C144.993 73.0663 145.467 72.3351 145.467 71.561V60.0786C145.467 59.3905 145.036 59.2184 144.432 59.2184C144.152 59.2184 143.829 59.2507 143.505 59.2829Z" fill="white"/>
<path d="M149.607 52.2086C145.941 52.2086 143.785 50.4884 143.785 47.5641C143.785 44.6826 145.941 43.0054 149.607 43.0054C153.272 43.0054 155.385 44.6826 155.385 47.5641C155.385 50.4884 153.272 52.2086 149.607 52.2086Z" fill="white"/>
<path d="M159.097 57.9283H161.512V69.7978C161.512 74.1413 164.142 76.3776 169.101 76.4637C175.699 76.5496 177.423 73.8833 176.906 72.9802C176.776 72.7651 176.56 72.7222 176.258 72.7222C175.881 72.7222 175.366 72.8683 174.811 73.0258L174.811 73.0259C174.161 73.2103 173.457 73.4103 172.852 73.4103C171.947 73.4103 171.257 72.9802 171.257 71.3459V57.9283H175.094C175.741 57.9283 176.172 57.4982 176.172 56.8531C176.172 56.1651 175.741 55.735 175.094 55.735H171.257V46.7469C171.257 45.9728 170.739 45.5427 169.963 45.7148L165.349 46.6609C164.616 46.8328 164.056 47.435 164.013 48.252C163.625 51.8215 162.072 55.6489 158.881 55.735L158.924 55.778C158.364 55.821 158.019 56.2511 158.019 56.8101V56.8531C158.019 57.4982 158.45 57.9283 159.097 57.9283Z" fill="white"/>
<path fill-rule="evenodd" clip-rule="evenodd" d="M184.605 76.3776C180.68 76.3776 177.704 74.3565 177.36 71.131C176.757 64.8093 183.612 63.132 188.356 63.132C189.908 63.132 191.245 63.3041 192.021 63.5621V62.1C192.021 58.8315 191.373 57.2832 189.477 57.2403C187.349 57.1987 186.998 58.4463 186.547 60.0474L186.545 60.0506C186.531 60.1025 186.517 60.1549 186.501 60.2077C186.199 61.3257 184.691 61.9279 183.182 61.9279C181.369 61.9279 179.516 61.1107 179.645 59.4766C179.818 56.8533 183.871 55.047 189.994 55.09C196.635 55.09 201.851 57.4553 201.851 63.6481C201.809 66.6154 201.809 69.4969 201.809 71.2171C201.809 72.5502 202.067 73.3244 202.801 73.4103C203.152 73.4542 203.448 73.2749 203.727 73.1055C203.995 72.9422 204.25 72.788 204.525 72.8513C205.56 73.1093 204.913 76.4208 198.36 76.3347C195.168 76.2917 192.538 75.0446 192.063 72.5072C190.728 75.0446 187.708 76.3776 184.605 76.3776ZM190.037 65.3683C188.701 65.3683 187.149 65.9704 186.889 68.6367C186.717 70.744 187.666 72.3783 189.563 72.2921C191.547 72.2492 191.935 70.3569 191.977 68.1207L192.021 65.7554C191.719 65.6263 190.9 65.3683 190.037 65.3683Z" fill="white"/>
<path d="M204.966 47.435C205.246 47.435 205.571 47.4027 205.894 47.3705C206.217 47.3382 206.541 47.3059 206.82 47.3059C207.424 47.3059 207.855 47.478 207.855 48.1661V71.561C207.855 72.3351 207.382 73.0663 206.692 73.4103C206.346 73.5824 206.045 73.7543 205.829 73.9263C205.096 74.4424 205.483 75.7756 206.346 75.7756H218.851C219.714 75.7756 220.144 74.4424 219.412 73.9263L219.411 73.9262V73.9258C219.153 73.7539 218.895 73.5822 218.679 73.4533C217.989 73.0232 217.558 72.2921 217.558 71.561V47.9511C217.558 44.1236 216.135 43.6075 212.728 43.6075C209.926 43.6075 206.562 44.2957 204.664 45.4138C203.802 45.8869 204.018 47.3491 204.966 47.435Z" fill="white"/>
<path d="M231.604 76.4637C228.888 76.4637 222.032 75.6465 220.437 71.9051C219.488 69.7549 220.781 67.6476 223.283 67.9916C224.997 68.2247 225.664 69.3443 226.401 70.581C227.295 72.0821 228.292 73.7558 231.389 74.2273C233.631 74.5715 234.622 73.7974 234.622 72.5501C234.622 71.2383 232.304 70.2537 229.552 69.0841C225.534 67.3783 220.591 65.2789 220.565 61.1968C220.523 57.3263 224.834 54.6599 231.561 54.961C237.642 55.219 241.221 56.9392 241.609 59.3905C241.91 61.0247 240.53 62.0999 238.891 61.8849C237.293 61.6627 236.51 60.682 235.703 59.6683C234.789 58.5235 233.843 57.3367 231.648 57.1543C230.052 57.0252 228.759 57.6273 228.715 58.7453C228.623 60.4199 231.161 61.2126 234.119 62.1375C238.077 63.3742 242.791 64.8473 242.988 68.9807C243.247 73.7543 239.28 76.4637 231.604 76.4637Z" fill="white"/>
<path d="M31.3029 4.10765C32.523 0.840503 36.1614 -0.819219 39.4295 0.40055L40.4801 0.792737L40.0567 1.92682C38.8365 5.19395 35.1981 6.85367 31.9302 5.6339L30.8794 5.24172L31.3029 4.10765Z" fill="white"/>
<path fill-rule="evenodd" clip-rule="evenodd" d="M50.3492 70.1446C45.9809 76.9913 36.9781 81.6898 26.5809 81.6898C11.9007 81.6898 0 72.3227 0 60.7682V27.5525C0 15.9979 11.9007 6.63098 26.5809 6.63098C41.261 6.63098 53.1617 15.9979 53.1617 27.5525V60.7682C53.1617 64.0939 52.1759 67.2385 50.4214 70.0306L50.4066 70.0541L50.3847 70.0888C50.3729 70.1074 50.3612 70.126 50.3492 70.1446ZM49.4678 20.5369H46.859C39.9766 20.5369 33.6852 22.2988 28.6245 25.2496C35.1722 29.9329 39.3292 36.7183 39.3292 44.3761C39.3292 52.0337 35.1722 58.8191 28.6245 63.5024C33.6852 66.4532 39.9766 68.2151 46.859 68.2151H49.2355C50.5256 65.9003 51.2318 63.3735 51.2318 60.7682V27.5525C51.2318 25.108 50.6101 22.7329 49.4678 20.5369ZM48.2987 18.6074H46.859C39.3658 18.6074 32.3992 20.6367 26.8549 24.0712C21.3107 20.6367 14.3439 18.6074 6.85074 18.6074H4.86298C8.9487 12.7366 16.9469 8.56042 26.5809 8.56042C36.2147 8.56042 44.213 12.7366 48.2987 18.6074ZM3.69397 20.5369C2.55162 22.7329 1.92996 25.108 1.92996 27.5525V60.7682C1.92996 63.3735 2.63619 65.9003 3.92634 68.2151H6.85074C13.7333 68.2151 20.0244 66.4532 25.0853 63.5024C18.5377 58.8191 14.3807 52.0337 14.3807 44.3761C14.3807 36.7183 18.5377 29.9329 25.0853 25.2496C20.0244 22.2988 13.7333 20.5369 6.85074 20.5369H3.69397ZM26.8549 26.3636C20.3662 30.768 16.3106 37.2572 16.3106 44.3761C16.3106 51.495 20.3662 57.9841 26.8549 62.3884C33.3435 57.9841 37.3992 51.495 37.3992 44.3761C37.3992 37.2572 33.3435 30.768 26.8549 26.3636ZM26.8549 64.6808C21.3107 68.1153 14.3439 70.1446 6.85074 70.1446H5.17248C9.34434 75.7877 17.1846 79.7604 26.5809 79.7604C35.9772 79.7604 43.8174 75.7877 47.9893 70.1446H46.859C39.3658 70.1446 32.3992 68.1153 26.8549 64.6808Z" fill="white"/>
</svg>
