<svg width="163" height="124" viewBox="0 0 163 124" fill="none" xmlns="http://www.w3.org/2000/svg">
<path d="M9.24884 112.366H5.29947V97.0967H0.24176V93.825H14.3066V97.0967H9.24884V112.366Z" fill="white"/>
<path d="M32.4353 112.366H28.4989V104.364H21.1224V112.366H17.173V93.825H21.1224V101.092H28.4989V93.825H32.4353V112.366Z" fill="white"/>
<path d="M47.876 112.366H37.1491V93.825H47.876V97.0462H41.0984V101.117H47.4046V104.338H41.0984V109.119H47.876V112.366Z" fill="white"/>
<path d="M69.5466 107.217C69.5466 108.891 68.9395 110.21 67.7247 111.174C66.5189 112.138 64.837 112.62 62.6799 112.62C60.6925 112.62 58.9342 112.248 57.4055 111.504V107.851C58.6627 108.409 59.7243 108.802 60.5906 109.031C61.4654 109.259 62.2638 109.373 62.9857 109.373C63.852 109.373 64.5144 109.208 64.9731 108.878C65.4402 108.549 65.6736 108.058 65.6736 107.407C65.6736 107.044 65.5718 106.723 65.3681 106.444C65.1641 106.156 64.8626 105.882 64.4633 105.619C64.0728 105.357 63.2702 104.939 62.0556 104.364C60.9175 103.831 60.064 103.32 59.4948 102.829C58.9258 102.339 58.4716 101.768 58.1319 101.117C57.7921 100.466 57.6221 99.7052 57.6221 98.8345C57.6221 97.1942 58.1784 95.9048 59.2911 94.9664C60.4122 94.0278 61.958 93.5586 63.9283 93.5586C64.8965 93.5586 65.8181 93.6728 66.6929 93.901C67.5763 94.1292 68.4977 94.4506 69.4574 94.8648L68.1834 97.9212C67.1897 97.5154 66.366 97.2322 65.7121 97.0717C65.0665 96.9108 64.4294 96.8306 63.801 96.8306C63.0536 96.8306 62.4804 97.0038 62.0812 97.3506C61.682 97.6972 61.4822 98.1494 61.4822 98.7077C61.4822 99.0543 61.563 99.3587 61.7243 99.6206C61.8856 99.8742 62.1407 100.124 62.4888 100.369C62.8454 100.606 63.682 101.037 64.9986 101.662C66.7397 102.491 67.9329 103.324 68.5785 104.161C69.224 104.989 69.5466 106.008 69.5466 107.217Z" fill="white"/>
<path d="M88.0832 93.825V105.822C88.0832 107.192 87.7732 108.392 87.1532 109.424C86.5416 110.455 85.6542 111.246 84.4905 111.795C83.327 112.345 81.9509 112.62 80.3627 112.62C77.9677 112.62 76.1076 112.011 74.7828 110.793C73.4578 109.568 72.7954 107.894 72.7954 105.771V93.825H76.7318V105.175C76.7318 106.604 77.0208 107.653 77.5982 108.32C78.1758 108.988 79.1314 109.322 80.4648 109.322C81.7556 109.322 82.6899 108.988 83.2675 108.32C83.8536 107.644 84.1465 106.587 84.1465 105.15V93.825H88.0832Z" fill="white"/>
<path d="M100.53 112.366L96.0454 97.8198H95.931C96.0923 100.779 96.1728 102.753 96.1728 103.742V112.366H92.644V93.825H98.0202L102.428 108.003H102.505L107.18 93.825H112.556V112.366H108.874V103.59C108.874 103.176 108.879 102.698 108.887 102.157C108.904 101.616 108.964 100.179 109.066 97.8452H108.951L104.148 112.366H100.53Z" fill="white"/>
<path d="M125.143 112.366L120.659 97.8198H120.544C120.706 100.779 120.786 102.753 120.786 103.742V112.366H117.257V93.825H122.634L127.042 108.003H127.118L131.793 93.825H137.17V112.366H133.488V103.59C133.488 103.176 133.492 102.698 133.501 102.157C133.518 101.616 133.577 100.179 133.679 97.8452H133.564L128.761 112.366H125.143Z" fill="white"/>
<path d="M141.871 112.366V93.825H145.82V112.366H141.871Z" fill="white"/>
<path d="M157.694 112.366H153.744V97.0967H148.687V93.825H162.751V97.0967H157.694V112.366Z" fill="white"/>
<path d="M4.96718 116.839H5.84457L3.31785 123.816H2.51235L0 116.839H0.863022L2.474 121.354C2.65939 121.872 2.80643 122.377 2.91509 122.867C3.03017 122.351 3.18041 121.837 3.3658 121.325L4.96718 116.839Z" fill="white"/>
<path d="M13.7243 123.817H12.9284V118.586H13.7243V123.817ZM12.8613 117.168C12.8613 116.987 12.9061 116.855 12.9956 116.772C13.0851 116.686 13.197 116.643 13.3312 116.643C13.459 116.643 13.5693 116.686 13.662 116.772C13.7547 116.858 13.8011 116.99 13.8011 117.168C13.8011 117.346 13.7547 117.48 13.662 117.569C13.5693 117.655 13.459 117.698 13.3312 117.698C13.197 117.698 13.0851 117.655 12.9956 117.569C12.9061 117.48 12.8613 117.346 12.8613 117.168Z" fill="white"/>
<path d="M24.0446 118.49C24.2779 118.49 24.4872 118.509 24.6726 118.547L24.5624 119.282C24.345 119.235 24.1532 119.211 23.987 119.211C23.5619 119.211 23.1975 119.383 22.8938 119.726C22.5934 120.07 22.4432 120.498 22.4432 121.01V123.816H21.6473V118.586H22.3041L22.3952 119.554H22.4336C22.6286 119.214 22.8635 118.951 23.1384 118.767C23.4133 118.582 23.7153 118.49 24.0446 118.49Z" fill="white"/>
<path d="M33.5881 123.258C33.7286 123.258 33.8644 123.249 33.9957 123.229C34.1268 123.207 34.2306 123.185 34.3071 123.163V123.769C34.221 123.81 34.0931 123.844 33.9236 123.869C33.7575 123.898 33.6072 123.912 33.4731 123.912C32.4566 123.912 31.9483 123.379 31.9483 122.313V119.201H31.1956V118.819L31.9483 118.49L32.2838 117.373H32.7442V118.586H34.269V119.201H32.7442V122.28C32.7442 122.595 32.8194 122.837 32.9695 123.005C33.1199 123.174 33.3261 123.258 33.5881 123.258Z" fill="white"/>
<path d="M42.3452 118.586V121.979C42.3452 122.405 42.4428 122.724 42.6378 122.934C42.8328 123.144 43.138 123.249 43.5535 123.249C44.1031 123.249 44.5043 123.099 44.7568 122.8C45.0127 122.501 45.1406 122.012 45.1406 121.335V118.586H45.9362V123.817H45.2795L45.1644 123.115H45.1212C44.9582 123.373 44.7313 123.57 44.4403 123.707C44.1528 123.844 43.8234 123.912 43.4528 123.912C42.8134 123.912 42.334 123.761 42.0144 123.459C41.698 123.156 41.5397 122.673 41.5397 122.008V118.586H42.3452Z" fill="white"/>
<path d="M57.0957 123.816L56.9375 123.072H56.8991C56.637 123.4 56.375 123.622 56.1127 123.74C55.8537 123.855 55.5294 123.912 55.1394 123.912C54.6185 123.912 54.2094 123.778 53.912 123.511C53.618 123.244 53.471 122.864 53.471 122.37C53.471 121.314 54.3197 120.76 56.0167 120.709L56.9086 120.681V120.356C56.9086 119.946 56.8191 119.643 56.6401 119.449C56.4645 119.252 56.1814 119.153 55.7914 119.153C55.3535 119.153 54.858 119.287 54.3051 119.554L54.0607 118.948C54.3197 118.808 54.6025 118.698 54.9094 118.619C55.2194 118.539 55.5294 118.5 55.8394 118.5C56.4659 118.5 56.9294 118.638 57.2298 118.915C57.5337 119.192 57.6854 119.636 57.6854 120.246V123.816H57.0957ZM55.2977 123.258C55.7931 123.258 56.1814 123.123 56.4628 122.852C56.7473 122.582 56.8895 122.203 56.8895 121.717V121.244L56.0936 121.277C55.4607 121.3 55.0037 121.398 54.7223 121.573C54.4442 121.745 54.3051 122.014 54.3051 122.38C54.3051 122.666 54.3915 122.884 54.564 123.034C54.7399 123.183 54.9843 123.258 55.2977 123.258Z" fill="white"/>
<path d="M66.3609 123.816H65.5653V116.39H66.3609V123.816Z" fill="white"/>
<path d="M87.1452 121.96C87.1452 122.574 86.9216 123.053 86.4741 123.397C86.0266 123.74 85.4192 123.912 84.6522 123.912C83.8209 123.912 83.1819 123.805 82.7344 123.592V122.809C83.0219 122.93 83.3353 123.026 83.6739 123.096C84.0128 123.166 84.3484 123.201 84.6808 123.201C85.2243 123.201 85.6333 123.099 85.9083 122.896C86.1832 122.689 86.3207 122.402 86.3207 122.036C86.3207 121.795 86.271 121.597 86.172 121.445C86.076 121.289 85.913 121.146 85.683 121.015C85.456 120.884 85.1092 120.737 84.6424 120.571C83.9904 120.339 83.5238 120.064 83.2425 119.746C82.9644 119.427 82.8253 119.012 82.8253 118.5C82.8253 117.962 83.0284 117.534 83.4343 117.216C83.8403 116.898 84.3773 116.739 85.0453 116.739C85.7422 116.739 86.3829 116.866 86.9679 117.12L86.7137 117.827C86.1352 117.585 85.5727 117.464 85.0262 117.464C84.5944 117.464 84.2572 117.556 84.0145 117.741C83.7716 117.925 83.6501 118.182 83.6501 118.509C83.6501 118.751 83.6947 118.95 83.7842 119.106C83.8737 119.258 84.0241 119.4 84.235 119.531C84.4491 119.658 84.7751 119.799 85.213 119.956C85.9481 120.216 86.4534 120.496 86.728 120.795C87.0063 121.094 87.1452 121.483 87.1452 121.96Z" fill="white"/>
<path d="M96.9141 123.912C96.1375 123.912 95.5237 123.676 95.0731 123.206C94.6256 122.735 94.4017 122.081 94.4017 121.244C94.4017 120.401 94.6096 119.731 95.0251 119.235C95.444 118.738 96.0048 118.49 96.7081 118.49C97.3666 118.49 97.8876 118.706 98.2711 119.139C98.6546 119.569 98.8465 120.137 98.8465 120.843V121.344H95.2266C95.2425 121.958 95.3974 122.424 95.6917 122.743C95.9888 123.061 96.406 123.22 96.943 123.22C97.5088 123.22 98.068 123.102 98.6209 122.867V123.573C98.3398 123.694 98.073 123.78 97.8202 123.831C97.5711 123.885 97.269 123.912 96.9141 123.912ZM96.6983 119.153C96.2767 119.153 95.9394 119.29 95.6867 119.564C95.4375 119.838 95.2905 120.216 95.2456 120.7H97.9931C97.9931 120.2 97.8811 119.819 97.6572 119.554C97.4336 119.287 97.1141 119.153 96.6983 119.153Z" fill="white"/>
<path d="M108.841 118.49C109.074 118.49 109.283 118.509 109.469 118.547L109.358 119.282C109.141 119.235 108.949 119.211 108.783 119.211C108.358 119.211 107.994 119.383 107.69 119.726C107.39 120.07 107.239 120.498 107.239 121.01V123.816H106.443V118.586H107.1L107.191 119.554H107.23C107.425 119.214 107.659 118.951 107.934 118.767C108.209 118.582 108.511 118.49 108.841 118.49Z" fill="white"/>
<path d="M117.837 123.817L115.843 118.586H116.696L117.828 121.688C118.083 122.413 118.234 122.884 118.278 123.101H118.317C118.352 122.932 118.462 122.584 118.648 122.055C118.836 121.524 119.256 120.367 119.909 118.586H120.762L118.767 123.817H117.837Z" fill="white"/>
<path d="M128.637 123.817H127.841V118.586H128.637V123.817ZM127.774 117.168C127.774 116.987 127.819 116.855 127.908 116.772C127.998 116.686 128.11 116.643 128.244 116.643C128.372 116.643 128.482 116.686 128.575 116.772C128.668 116.858 128.714 116.99 128.714 117.168C128.714 117.346 128.668 117.48 128.575 117.569C128.482 117.655 128.372 117.698 128.244 117.698C128.11 117.698 127.998 117.655 127.908 117.569C127.819 117.48 127.774 117.346 127.774 117.168Z" fill="white"/>
<path d="M138.66 123.912C137.899 123.912 137.31 123.68 136.891 123.215C136.475 122.747 136.268 122.087 136.268 121.234C136.268 120.359 136.479 119.683 136.9 119.206C137.326 118.729 137.93 118.49 138.713 118.49C138.965 118.49 139.218 118.517 139.47 118.571C139.723 118.625 139.921 118.689 140.065 118.762L139.82 119.435C139.645 119.365 139.453 119.308 139.245 119.263C139.037 119.216 138.854 119.192 138.694 119.192C137.626 119.192 137.092 119.869 137.092 121.225C137.092 121.868 137.222 122.361 137.481 122.704C137.743 123.048 138.129 123.22 138.641 123.22C139.079 123.22 139.528 123.126 139.988 122.938V123.64C139.637 123.821 139.194 123.912 138.66 123.912Z" fill="white"/>
<path d="M149.695 123.912C148.918 123.912 148.304 123.676 147.854 123.206C147.406 122.735 147.182 122.081 147.182 121.244C147.182 120.401 147.39 119.731 147.806 119.235C148.224 118.738 148.785 118.49 149.488 118.49C150.147 118.49 150.668 118.706 151.052 119.139C151.435 119.569 151.627 120.137 151.627 120.843V121.344H148.007C148.023 121.958 148.178 122.424 148.472 122.743C148.769 123.061 149.187 123.22 149.723 123.22C150.289 123.22 150.848 123.102 151.401 122.867V123.573C151.12 123.694 150.853 123.78 150.601 123.831C150.352 123.885 150.049 123.912 149.695 123.912ZM149.479 119.153C149.057 119.153 148.72 119.29 148.467 119.564C148.218 119.838 148.071 120.216 148.026 120.7H150.774C150.774 120.2 150.662 119.819 150.438 119.554C150.214 119.287 149.894 119.153 149.479 119.153Z" fill="white"/>
<path d="M162.614 122.389C162.614 122.876 162.431 123.252 162.067 123.516C161.703 123.78 161.191 123.912 160.533 123.912C159.836 123.912 159.293 123.802 158.903 123.583V122.848C159.155 122.975 159.425 123.075 159.713 123.148C160.004 123.222 160.283 123.258 160.552 123.258C160.967 123.258 161.287 123.193 161.511 123.062C161.734 122.929 161.846 122.727 161.846 122.456C161.846 122.252 161.757 122.079 161.578 121.936C161.402 121.79 161.057 121.618 160.542 121.42C160.053 121.239 159.705 121.082 159.497 120.948C159.293 120.811 159.139 120.657 159.037 120.485C158.938 120.313 158.888 120.108 158.888 119.869C158.888 119.443 159.063 119.107 159.411 118.862C159.759 118.614 160.237 118.49 160.844 118.49C161.41 118.49 161.963 118.604 162.503 118.834L162.22 119.478C161.693 119.262 161.215 119.153 160.787 119.153C160.41 119.153 160.125 119.212 159.933 119.33C159.742 119.448 159.646 119.61 159.646 119.817C159.646 119.957 159.681 120.076 159.751 120.175C159.825 120.273 159.941 120.367 160.101 120.456C160.261 120.545 160.568 120.674 161.022 120.843C161.645 121.069 162.066 121.296 162.283 121.525C162.503 121.754 162.614 122.043 162.614 122.389Z" fill="white"/>
<path d="M0 88.8108L44.4799 29.3377L77.4399 74.7795L90.0798 65.8507L68.9597 36.8319L96.7996 0L162.719 88.8108H0Z" fill="white"/>
</svg>
